<?xml version="1.0" encoding="UTF-8" standalone="no"?>
<svg
   version="1.1"
   width="1024px"
   height="1024px"
   style="shape-rendering:geometricPrecision; text-rendering:geometricPrecision; image-rendering:optimizeQuality; fill-rule:evenodd; clip-rule:evenodd"
   id="svg19"
   sodipodi:docname="paraninfo.svg"
   inkscape:version="1.3-alpha (76e0050ef, 2023-04-25)"
   xmlns:inkscape="http://www.inkscape.org/namespaces/inkscape"
   xmlns:sodipodi="http://sodipodi.sourceforge.net/DTD/sodipodi-0.dtd"
   xmlns="http://www.w3.org/2000/svg"
   xmlns:svg="http://www.w3.org/2000/svg">
  <defs
     id="defs19" />
  <sodipodi:namedview
     id="namedview19"
     pagecolor="#ffffff"
     bordercolor="#000000"
     borderopacity="0.25"
     inkscape:showpageshadow="2"
     inkscape:pageopacity="0.0"
     inkscape:pagecheckerboard="0"
     inkscape:deskcolor="#d1d1d1"
     inkscape:zoom="1.0019531"
     inkscape:cx="592.84211"
     inkscape:cy="398.22222"
     inkscape:window-width="3840"
     inkscape:window-height="2036"
     inkscape:window-x="3348"
     inkscape:window-y="-12"
     inkscape:window-maximized="1"
     inkscape:current-layer="svg19" />
  <g
     id="g3">
    <path
       style="opacity:1"
       fill="#63b7b7"
       d="M 861.5,328.5 C 883.699,373.958 896.866,421.958 901,472.5C 906.972,547.684 892.639,618.684 858,685.5C 805.425,783.733 725.925,849.566 619.5,883C 538.972,904.798 459.305,902.132 380.5,875C 278.638,834.636 203.972,765.136 156.5,666.5C 136.38,622.352 124.88,576.018 122,527.5C 117.083,403.89 159.25,299.724 248.5,215C 352.694,125.856 472.028,96.5226 606.5,127C 721.174,156.959 806.174,224.126 861.5,328.5 Z"
       id="path3" />
  </g>
  <g
     id="g4">
    <path
       style="opacity:1"
       fill="#0b0c0c"
       d="M 480.5,129.5 C 586.308,123.937 679.641,154.77 760.5,222C 856.891,311.036 898.391,421.203 885,552.5C 869.54,654.287 822.374,737.787 743.5,803C 661.283,866.479 568.283,892.479 464.5,881C 356.719,864.384 270.886,812.218 207,724.5C 133.057,616.48 116.724,500.147 158,375.5C 192.686,285.154 252.52,216.987 337.5,171C 382.695,148.288 430.362,134.455 480.5,129.5 Z"
       id="path4" />
  </g>
  <g
     id="g5">
    <path
       style="opacity:1"
       fill="#64b7b7"
       d="M 702.5,347.5 C 720.511,374.564 726.677,404.231 721,436.5C 715.471,463.887 703.805,488.22 686,509.5C 678.569,518.934 670.402,527.768 661.5,536C 636.351,556.819 610.351,576.486 583.5,595C 565.411,608.92 548.078,623.753 531.5,639.5C 530.504,639.414 529.671,639.748 529,640.5C 528.292,639.619 527.458,638.953 526.5,638.5C 524.284,633.869 523.117,628.869 523,623.5C 519.59,604.741 524.423,588.574 537.5,575C 542.738,571.734 548.405,570.734 554.5,572C 559.675,578.184 562.008,585.351 561.5,593.5C 563.5,593.5 565.5,593.5 567.5,593.5C 568.147,569.668 556.814,560.834 533.5,567C 524.682,572.117 518.848,579.617 516,589.5C 511.789,607.318 513.289,624.651 520.5,641.5C 519.957,641.56 519.624,641.893 519.5,642.5C 520.788,644.739 521.788,647.072 522.5,649.5C 508.506,662.661 495.006,676.327 482,690.5C 472.015,704.135 463.848,718.802 457.5,734.5C 449.262,731.44 441.596,727.273 434.5,722C 425.371,715.205 417.204,707.371 410,698.5C 408.315,700.017 406.815,701.684 405.5,703.5C 420.161,721.505 438.161,735.171 459.5,744.5C 457.339,744.734 455.172,745.067 453,745.5C 445.922,766.773 447.255,787.439 457,807.5C 462.575,816.879 470.742,822.712 481.5,825C 466.279,825.46 451.279,823.793 436.5,820C 391.536,809.345 349.87,791.345 311.5,766C 248.178,719.561 212.012,657.061 203,578.5C 198.279,503.986 220.946,439.319 271,384.5C 283.119,371.208 296.286,359.208 310.5,348.5C 318.587,352.961 326.754,357.294 335,361.5C 336.743,359.679 338.243,357.679 339.5,355.5C 305.543,338.904 271.543,322.404 237.5,306C 236.978,305.439 236.645,304.772 236.5,304C 261.509,292.167 286.842,280.833 312.5,270C 376.615,243.443 440.615,216.609 504.5,189.5C 600.945,221.48 696.278,256.313 790.5,294C 791.687,295.019 792.687,296.186 793.5,297.5C 762.326,312.252 730.993,326.752 699.5,341C 700.914,342.993 701.914,345.16 702.5,347.5 Z"
       id="path5" />
  </g>
  <g
     id="g6">
    <path
       style="opacity:1"
       fill="#68bebd"
       d="M 522.5,649.5 C 521.788,647.072 520.788,644.739 519.5,642.5C 519.624,641.893 519.957,641.56 520.5,641.5C 525.008,652.518 531.508,662.185 540,670.5C 537.849,664.538 534.849,658.871 531,653.5C 528.787,648.696 527.287,643.696 526.5,638.5C 527.458,638.953 528.292,639.619 529,640.5C 529.671,639.748 530.504,639.414 531.5,639.5C 530.645,640.531 529.978,641.697 529.5,643C 532.469,652.105 536.636,660.605 542,668.5C 559.705,648.454 579.538,630.954 601.5,616C 621.996,603.224 644.329,596.391 668.5,595.5C 698.425,595.52 717.258,609.854 725,638.5C 727.78,677.45 711.28,704.617 675.5,720C 644.945,731.469 615.278,729.469 586.5,714C 578.156,709.163 570.156,703.83 562.5,698C 555.625,691.292 548.958,684.459 542.5,677.5C 523.397,703.31 514.231,732.31 515,764.5C 518.474,783.991 529.974,792.824 549.5,791C 564.989,785.369 568.989,775.202 561.5,760.5C 563.655,760.372 565.655,760.872 567.5,762C 575.632,773.993 573.632,783.993 561.5,792C 544.021,800.006 528.854,796.839 516,782.5C 509.05,770.409 506.717,757.409 509,743.5C 513.514,717.983 523.347,694.817 538.5,674C 531.302,666.985 525.969,658.818 522.5,649.5 Z"
       id="path6" />
  </g>
  <g
     id="g7">
    <path
       style="opacity:1"
       fill="#0b0c0c"
       d="M 659.5,601.5 C 699.75,599.582 718.583,618.582 716,658.5C 711.674,680.665 699.841,697.499 680.5,709C 646.772,727.57 613.438,726.904 580.5,707C 566.832,698.671 554.999,688.171 545,675.5C 566.134,646.387 593.301,624.554 626.5,610C 637.353,606.038 648.353,603.204 659.5,601.5 Z"
       id="path7" />
  </g>
  <g
     id="g8">
    <path
       style="opacity:1"
       fill="#0b0c0c"
       d="M 526.5,638.5 C 527.287,643.696 528.787,648.696 531,653.5C 534.849,658.871 537.849,664.538 540,670.5C 531.508,662.185 525.008,652.518 520.5,641.5C 513.289,624.651 511.789,607.318 516,589.5C 518.848,579.617 524.682,572.117 533.5,567C 556.814,560.834 568.147,569.668 567.5,593.5C 565.5,593.5 563.5,593.5 561.5,593.5C 562.008,585.351 559.675,578.184 554.5,572C 548.405,570.734 542.738,571.734 537.5,575C 524.423,588.574 519.59,604.741 523,623.5C 523.117,628.869 524.284,633.869 526.5,638.5 Z"
       id="path8" />
  </g>
  <g
     id="g9">
    <path
       style="opacity:1"
       fill="#72d4d3"
       d="M 790.5,517.5 C 790.5,530.167 790.5,542.833 790.5,555.5C 787.5,555.5 784.5,555.5 781.5,555.5C 781.5,540.5 781.5,525.5 781.5,510.5C 783.042,518.448 783.708,533.114 783.5,554.5C 785.5,554.5 787.5,554.5 789.5,554.5C 789.171,541.989 789.505,529.655 790.5,517.5 Z"
       id="path9" />
  </g>
  <g
     id="g10">
    <path
       style="opacity:1"
       fill="#63b4b4"
       d="M 776.5,547.5 C 776.806,550.385 776.473,553.052 775.5,555.5C 775.663,553.143 775.497,550.81 775,548.5C 774.505,550.473 774.338,552.473 774.5,554.5C 770.833,554.5 767.167,554.5 763.5,554.5C 763.34,552.801 763.506,551.134 764,549.5C 765.694,551.656 767.527,551.489 769.5,549C 767.658,545.983 764.991,544.483 761.5,544.5C 760.549,531.141 760.549,520.474 761.5,512.5C 764.505,512.253 767.005,513.253 769,515.5C 770.549,512.997 772.216,512.997 774,515.5C 774.333,514.167 774.667,512.833 775,511.5C 775.169,523.674 775.669,535.674 776.5,547.5 Z"
       id="path10" />
  </g>
  <g
     id="g11">
    <path
       style="opacity:1"
       fill="#6ac4c3"
       d="M 777.5,484.5 C 777.736,505.516 777.403,526.516 776.5,547.5C 775.669,535.674 775.169,523.674 775,511.5C 774.667,512.833 774.333,514.167 774,515.5C 772.216,512.997 770.549,512.997 769,515.5C 767.005,513.253 764.505,512.253 761.5,512.5C 760.549,520.474 760.549,531.141 761.5,544.5C 764.991,544.483 767.658,545.983 769.5,549C 767.527,551.489 765.694,551.656 764,549.5C 763.506,551.134 763.34,552.801 763.5,554.5C 767.167,554.5 770.833,554.5 774.5,554.5C 774.338,552.473 774.505,550.473 775,548.5C 775.497,550.81 775.663,553.143 775.5,555.5C 770.5,555.5 765.5,555.5 760.5,555.5C 760.097,543.502 759.763,531.502 759.5,519.5C 759.334,515.154 759.501,510.821 760,506.5C 761.356,507.38 762.856,507.714 764.5,507.5C 764.544,510.481 764.877,510.814 765.5,508.5C 764.604,506.199 764.438,503.866 765,501.5C 765.652,503.723 767.152,504.89 769.5,505C 769.333,506.833 769.167,508.667 769,510.5C 772.248,509.558 772.748,508.225 770.5,506.5C 770.808,505.692 771.308,505.025 772,504.5C 773.044,505.623 773.71,506.956 774,508.5C 774.667,509.833 775.333,509.833 776,508.5C 776.171,500.323 776.671,492.323 777.5,484.5 Z"
       id="path11" />
  </g>
  <g
     id="g12">
    <path
       style="opacity:1"
       fill="#0c0c0c"
       d="M 702.5,347.5 C 719.868,388.573 716.702,427.906 693,465.5C 673.186,496.846 645.353,517.679 609.5,528C 586.765,533.547 564.432,532.213 542.5,524C 536.333,521.5 530.167,519 524,516.5C 509.21,548.221 492.543,578.887 474,608.5C 454.004,639.828 429.171,666.662 399.5,689C 370.708,707.031 339.375,714.698 305.5,712C 255.28,702.085 235.113,671.918 245,621.5C 254.838,593.801 274.005,575.967 302.5,568C 320.074,563.107 336.74,565.107 352.5,574C 370.835,592.515 372.335,612.348 357,633.5C 343.518,648.885 327.018,653.718 307.5,648C 340.422,643.419 356.255,624.586 355,591.5C 347.347,574.757 334.513,568.257 316.5,572C 267.149,590.548 250.983,625.048 268,675.5C 278.82,695.752 295.82,705.752 319,705.5C 345.982,704.731 369.982,696.065 391,679.5C 381.169,646.957 384.169,615.623 400,585.5C 411.358,568.479 426.191,555.312 444.5,546C 455.85,540.441 467.35,535.275 479,530.5C 492.787,499.593 507.12,468.926 522,438.5C 541.874,402.639 564.874,368.972 591,337.5C 602.121,325.206 614.288,314.206 627.5,304.5C 621.938,301.227 615.938,298.727 609.5,297C 523.579,276.447 446.579,294.114 378.5,350C 362.721,365.101 349.221,381.934 338,400.5C 321.555,427.613 314.888,456.946 318,488.5C 322.881,511.047 336.381,525.547 358.5,532C 382.63,533.886 404.297,527.553 423.5,513C 447.605,491.945 466.772,467.111 481,438.5C 487.334,425.502 489.667,411.835 488,397.5C 484.721,385.226 476.721,379.56 464,380.5C 455.795,380.851 448.295,383.351 441.5,388C 408.316,410.2 392.483,441.367 394,481.5C 394.468,490.963 399.301,496.13 408.5,497C 398.455,500.915 390.621,498.082 385,488.5C 377.443,470.256 378.11,452.256 387,434.5C 398.134,409.033 416.3,390.533 441.5,379C 455.806,373.853 469.806,374.519 483.5,381C 492.018,388.202 496.018,397.369 495.5,408.5C 494.188,428.27 488.354,446.604 478,463.5C 462.254,487.913 442.421,508.413 418.5,525C 397.557,536.657 375.224,540.657 351.5,537C 320.837,526.99 304.337,505.824 302,473.5C 300.768,442.763 308.434,414.429 325,388.5C 342.167,360.667 364.667,338.167 392.5,321C 470.953,275.868 552.953,268.034 638.5,297.5C 654.862,288.231 672.362,282.564 691,280.5C 696.475,280.395 701.642,281.561 706.5,284C 685.707,284.153 667.04,290.486 650.5,303C 667.905,310.288 682.738,321.122 695,335.5C 697.275,339.732 699.775,343.732 702.5,347.5 Z"
       id="path12" />
  </g>
  <g
     id="g13">
    <path
       style="opacity:1"
       fill="#65b7b7"
       d="M 473.5,537.5 C 474.239,537.369 474.906,537.536 475.5,538C 460.476,567.214 445.309,596.381 430,625.5C 420.163,641.67 409.163,657.003 397,671.5C 383.61,616.799 401.443,575.966 450.5,549C 458.259,545.121 465.925,541.287 473.5,537.5 Z"
       id="path13" />
  </g>
  <g
     id="g14">
    <path
       style="opacity:1"
       fill="#63b6b6"
       d="M 773.5,433.5 C 771.752,435.16 771.252,437.16 772,439.5C 779.345,448.193 784.012,458.193 786,469.5C 789.002,485.357 790.502,501.357 790.5,517.5C 789.505,529.655 789.171,541.989 789.5,554.5C 787.5,554.5 785.5,554.5 783.5,554.5C 783.708,533.114 783.042,518.448 781.5,510.5C 780.787,497.283 779.62,483.949 778,470.5C 777.201,466.576 776.701,466.576 776.5,470.5C 777.315,475.132 777.648,479.799 777.5,484.5C 776.671,492.323 776.171,500.323 776,508.5C 775.333,509.833 774.667,509.833 774,508.5C 773.71,506.956 773.044,505.623 772,504.5C 771.308,505.025 770.808,505.692 770.5,506.5C 772.748,508.225 772.248,509.558 769,510.5C 769.167,508.667 769.333,506.833 769.5,505C 767.152,504.89 765.652,503.723 765,501.5C 764.438,503.866 764.604,506.199 765.5,508.5C 764.877,510.814 764.544,510.481 764.5,507.5C 762.856,507.714 761.356,507.38 760,506.5C 759.501,510.821 759.334,515.154 759.5,519.5C 758.677,516.023 758.177,512.356 758,508.5C 756.557,524.151 755.39,539.818 754.5,555.5C 750.833,555.5 747.167,555.5 743.5,555.5C 742.766,527.409 743.933,499.409 747,471.5C 748.822,458.836 753.989,447.836 762.5,438.5C 758.864,432.894 756.03,426.894 754,420.5C 753.185,415.648 753.352,410.981 754.5,406.5C 754.369,407.239 754.536,407.906 755,408.5C 756.601,408.112 758.435,407.445 760.5,406.5C 760.608,404.217 761.441,402.217 763,400.5C 765.324,401.845 767.658,402.178 770,401.5C 772.032,403.768 773.365,403.102 774,399.5C 779.207,404.796 780.874,411.129 779,418.5C 777.637,423.558 775.471,428.224 772.5,432.5C 772.624,433.107 772.957,433.44 773.5,433.5 Z"
       id="path14" />
  </g>
  <g
     id="g15">
    <path
       style="opacity:1"
       fill="#65b7b7"
       d="M 639.5,310.5 C 670.936,325.017 685.103,349.684 682,384.5C 676.226,419.502 663.226,451.502 643,480.5C 631.217,496.289 616.384,508.123 598.5,516C 573.187,525.146 549.187,522.479 526.5,508C 539.283,482.6 551.117,456.766 562,430.5C 572.745,409.342 583.745,388.342 595,367.5C 607.055,346.284 621.889,327.284 639.5,310.5 Z"
       id="path15" />
  </g>
  <g
     id="g16">
    <path
       style="opacity:1"
       fill="#69c2c2"
       d="M 765.5,320.5 C 765.333,347.169 765.5,373.835 766,400.5C 766.689,399.643 767.522,398.977 768.5,398.5C 769.768,399.428 771.101,399.595 772.5,399C 771.584,398.626 770.75,398.126 770,397.5C 769.333,372.167 769.333,346.833 770,321.5C 770.168,346.67 770.668,371.67 771.5,396.5C 780.554,402.156 783.388,410.156 780,420.5C 778.347,425.139 776.181,429.472 773.5,433.5C 772.957,433.44 772.624,433.107 772.5,432.5C 775.471,428.224 777.637,423.558 779,418.5C 780.874,411.129 779.207,404.796 774,399.5C 773.365,403.102 772.032,403.768 770,401.5C 767.658,402.178 765.324,401.845 763,400.5C 761.441,402.217 760.608,404.217 760.5,406.5C 758.435,407.445 756.601,408.112 755,408.5C 754.536,407.906 754.369,407.239 754.5,406.5C 755.722,402.275 758.388,399.275 762.5,397.5C 762.838,371.487 763.838,345.82 765.5,320.5 Z"
       id="path16" />
  </g>
  <g
     id="g17">
    <path
       style="opacity:1"
       fill="#0c0e0d"
       d="M 668.5,355.5 C 669.75,355.577 670.583,356.244 671,357.5C 671.743,359.441 671.576,361.274 670.5,363C 643.529,376.492 616.196,388.825 588.5,400C 590.709,396.414 593.043,392.914 595.5,389.5C 620.044,378.392 644.378,367.058 668.5,355.5 Z"
       id="path17" />
  </g>
  <g
     id="g18">
    <path
       style="opacity:1"
       fill="#0a0c0c"
       d="M 369.5,371.5 C 378.171,375.836 386.838,380.169 395.5,384.5C 394.021,388.825 391.355,389.659 387.5,387C 380.246,383.973 373.246,380.473 366.5,376.5C 367.26,374.64 368.26,372.973 369.5,371.5 Z"
       id="path18" />
  </g>
  <g
     id="g19">
    <path
       style="opacity:1"
       fill="#62b2b2"
       d="M 771.5,396.5 C 770.668,371.67 770.168,346.67 770,321.5C 769.333,346.833 769.333,372.167 770,397.5C 770.75,398.126 771.584,398.626 772.5,399C 771.101,399.595 769.768,399.428 768.5,398.5C 767.522,398.977 766.689,399.643 766,400.5C 765.5,373.835 765.333,347.169 765.5,320.5C 766.937,319.275 768.604,318.275 770.5,317.5C 771.5,343.825 771.833,370.158 771.5,396.5 Z"
       id="path19" />
  </g>
  <path
     style="fill:#7fffd4;fill-opacity:1;stroke-width:5.9883;stroke-opacity:0.362031"
     d="m 465.59064,824.22776 c -32.33404,-3.16271 -75.58146,-16.65072 -112.2807,-35.01811 -32.5352,-16.28334 -51.85187,-29.78158 -73.9141,-51.6502 -14.86124,-14.73081 -24.97175,-27.02239 -35.30094,-42.91618 -25.88117,-39.82399 -40.99159,-89.38235 -40.99159,-134.44207 0,-37.06297 6.47806,-69.77313 20.10995,-101.54274 8.72572,-20.33562 22.29336,-42.62961 36.92587,-60.67562 12.28619,-15.15235 43.75206,-45.5692 49.54517,-47.89342 0.70765,-0.28391 6.73619,2.30054 13.39675,5.74321 l 12.11011,6.25942 2.36912,-2.75426 c 1.30302,-1.51484 2.23589,-3.14924 2.07303,-3.63199 -0.16284,-0.48275 -13.5452,-7.3335 -29.73857,-15.22391 -16.19338,-7.89041 -39.3232,-19.16498 -51.39961,-25.05461 l -21.95712,-10.70841 10.47953,-4.97063 c 21.90443,-10.38964 54.5407,-24.51676 113.33996,-49.06094 33.45093,-13.96321 79.64242,-33.3377 102.64772,-43.05443 l 41.82783,-17.66678 22.54644,7.68678 c 84.70697,28.87926 151.1791,53.0938 227.07811,82.72027 33.19083,12.95573 37.49562,14.85116 37.49562,16.50961 0,0.39396 -7.97193,4.45946 -17.7154,9.03444 -28.42174,13.3452 -75.46096,34.90015 -75.61408,34.64889 -0.0774,-0.12694 -1.1241,-1.86741 -2.32611,-3.86772 -4.84029,-8.05499 -21.78424,-21.94549 -36.35108,-29.80032 l -7.74935,-4.17865 2.28355,-1.79625 c 10.92793,-8.5959 32.67387,-15.92821 47.48619,-16.01141 5.11027,-0.0287 5.47107,-0.16797 3.77058,-1.45545 -1.03423,-0.78304 -4.36556,-1.97986 -7.40293,-2.65959 -4.66191,-1.04329 -7.0732,-0.97128 -15.47318,0.46212 -11.67528,1.9923 -27.6182,7.13044 -37.38307,12.04795 l -6.92717,3.48846 -7.88377,-2.45704 c -20.91484,-6.51826 -44.02349,-11.31827 -64.6325,-13.42511 -15.27696,-1.56176 -53.35321,-0.71664 -67.00956,1.4873 -48.99843,7.90765 -98.05804,28.50277 -129.74659,54.46734 -9.39934,7.70151 -26.70372,25.7031 -33.55423,34.90617 -23.66426,31.79086 -33.80581,59.8491 -33.93057,93.8744 -0.0381,10.39493 0.43415,15.56822 2.03749,22.31912 5.21829,21.9718 19.04306,37.96692 40.72067,47.11345 6.54988,2.76362 7.2933,2.85267 23.72859,2.84202 19.5143,-0.0127 27.55662,-1.6378 42.36028,-8.55999 22.83095,-10.67575 55.25725,-43.10275 70.71692,-70.71843 8.49473,-15.17419 14.13873,-35.67694 14.16036,-51.43977 0.0108,-7.85759 -0.34733,-9.73236 -2.85971,-14.97076 -5.00198,-10.42932 -10.8611,-14.23809 -25.26049,-16.42079 -7.54018,-1.14297 -10.37955,-0.9822 -20.27135,1.14781 -14.973,3.22415 -37.68486,20.37238 -49.37073,37.27659 -6.27463,9.07657 -14.30799,25.71418 -16.43178,34.03128 -2.2829,8.94017 -2.03266,22.9415 0.58327,32.63627 1.81622,6.73102 2.85993,8.69314 6.73684,12.66497 5.2772,5.40639 9.61912,6.70412 16.29996,4.87182 l 4.25651,-1.1674 -3.94788,-1.38898 c -9.24067,-3.25111 -11.00643,-7.68894 -10.23705,-25.72831 0.87111,-20.42425 6.07448,-36.78361 16.72763,-52.59157 8.93616,-13.26016 27.68075,-29.26875 39.7414,-33.94067 3.97088,-1.53818 7.9676,-2.20606 13.60674,-2.27375 10.45161,-0.12544 14.70462,1.95963 19.21247,9.41911 3.09305,5.11828 3.24367,5.83719 3.24367,15.48204 0,12.7532 -2.30194,22.07894 -8.49236,34.4048 -12.70666,25.30047 -31.84995,50.39017 -51.88971,68.00803 -6.75764,5.94096 -11.70166,9.23694 -19.96101,13.30725 -14.15918,6.97781 -20.13988,8.5173 -35.73915,9.19959 -12.1503,0.53145 -13.11501,0.42853 -19.46199,-2.0764 -16.27483,-6.42308 -28.03202,-19.96745 -32.66948,-37.63545 -1.37249,-5.22896 -1.57935,-9.25297 -1.12466,-21.87731 1.18021,-32.76892 10.53107,-57.51245 33.19137,-87.82846 16.91074,-22.624 28.39993,-33.47563 52.41992,-49.51108 55.60564,-37.12164 116.12722,-50.10325 182.86241,-39.22319 16.16875,2.63604 26.87173,5.37039 33.93104,8.66855 l 5.81492,2.71679 -8.80907,7.13222 c -32.70139,26.4765 -74.68385,83.99956 -102.59999,140.57928 -10.52143,21.32457 -32.96615,69.35928 -35.48957,75.95244 -0.50029,1.30712 -2.9942,2.96919 -6.6226,4.41359 -11.7127,4.66268 -34.49584,15.94633 -41.20956,20.40959 -16.30466,10.83932 -30.48706,27.18025 -36.87364,42.48571 -10.10038,24.2056 -12.45452,48.44261 -7.09179,73.01374 1.10327,5.055 2.00595,9.70829 2.00595,10.34061 0,3.02772 -23.15684,16.07228 -35.92982,20.23976 -31.75974,10.36233 -58.0962,7.09121 -74.42853,-9.2444 -7.9975,-7.99911 -10.94414,-13.3009 -13.9854,-25.16339 -7.4198,-28.94114 -2.12254,-52.88004 15.53901,-70.22241 7.90431,-7.76148 18.64213,-14.74947 29.89637,-19.45603 16.42601,-6.86944 31.21247,-2.92075 40.09107,10.7062 l 4.07325,6.25168 -0.65355,8.33992 c -1.16485,14.86452 -5.88411,25.56431 -14.96894,33.9384 -5.82125,5.36585 -12.98933,8.85439 -23.9094,11.63617 -9.75417,2.48479 -9.68343,2.94926 0.66782,4.38458 22.37963,3.10318 42.96393,-10.59472 49.81469,-33.14936 4.19734,-13.81883 0.77237,-27.82815 -9.63267,-39.40106 -9.83591,-10.93991 -32.72635,-15.34165 -52.99515,-10.19076 -8.65987,2.20073 -21.81462,8.12159 -28.94713,13.02889 -10.45507,7.19327 -21.20521,20.5701 -27.044,33.65194 -4.60428,10.31591 -6.41231,29.06409 -4.18938,43.44145 2.26379,14.64162 9.52981,27.95254 20.0271,36.68848 6.93062,5.76771 21.12437,12.85619 31.75985,15.86111 19.21514,5.42899 50.85186,2.8487 75.35282,-6.14578 20.92459,-7.68157 36.62547,-18.29563 58.7638,-39.7253 26.30542,-25.46338 44.13593,-50.29017 70.24604,-97.80897 7.73435,-14.07606 23.24978,-44.58392 24.34481,-47.86902 0.33962,-1.01884 3.60602,-0.10658 13.37194,3.73462 28.87825,11.35858 55.72749,12.35536 82.10116,3.048 21.4973,-7.58647 37.0891,-17.52182 53.60331,-34.15691 35.67544,-35.93658 48.72517,-80.00611 36.84094,-124.41358 -1.35834,-5.07571 -2.30532,-9.39296 -2.1044,-9.59388 0.57703,-0.57702 6.42551,12.59126 9.15038,20.6027 3.86773,11.37159 5.49489,22.01006 5.49489,35.92584 0,37.60383 -15.27723,72.33621 -47.71985,108.48978 -11.57086,12.8944 -45.58505,40.2557 -81.02869,65.18018 -13.46954,9.47197 -31.69945,24.23095 -49.09886,39.75056 -10.33147,9.21527 -14.25013,12.14418 -15.6525,11.69908 -3.28152,-1.0415 -5.4858,-11.26134 -5.49761,-25.48899 -0.0118,-14.25045 1.42596,-19.30561 8.50706,-29.90962 5.44334,-8.15147 8.77524,-10.34882 16.43141,-10.83632 l 6.17404,-0.39314 2.68871,4.58795 c 1.4788,2.52337 3.18976,7.513 3.80214,11.08806 l 1.11343,6.50011 h 3.38845 3.38845 l -0.66571,-6.23782 c -1.23639,-11.58513 -4.48913,-18.03294 -10.80994,-21.42826 -4.62014,-2.48179 -18.74356,-2.33023 -24.15114,0.25914 -9.12539,4.36964 -16.32386,15.19619 -18.53106,27.87087 -1.80095,10.34181 -0.71257,28.16716 2.31782,37.96102 1.35879,4.39143 3.01323,9.94331 3.67653,12.33753 l 1.20601,4.35311 -19.78494,19.81145 c -22.24136,22.27115 -27.27297,28.98857 -38.20994,51.01199 l -6.78283,13.65831 -7.85612,-3.93245 c -10.54436,-5.27808 -20.02077,-12.48504 -30.67195,-23.32652 l -8.84309,-9.00111 -2.32171,2.91169 -2.32171,2.9117 3.8153,4.55418 c 10.17157,12.1414 24.9514,23.7002 41.5942,32.52939 5.60201,2.97192 6.35039,3.65345 4.53356,4.12856 -4.32604,1.13129 -7.77709,21.0454 -6.13784,35.41814 2.46023,21.57106 10.36545,35.70881 23.43668,41.9143 l 5.98831,2.84291 -4.49123,-0.15894 c -2.47018,-0.0874 -6.06316,-0.31269 -7.98441,-0.50061 z M 394.52943,387.54308 c 0.65872,-0.65871 1.19767,-1.77831 1.19767,-2.48798 0,-1.02312 -24.51629,-14.27927 -26.40847,-14.27927 -0.2682,0 -1.16725,1.3142 -1.99787,2.92046 -1.48286,2.86752 -1.44902,2.9583 1.86646,5.00737 5.58157,3.44961 19.90832,9.92014 22.09855,9.9806 1.1253,0.0311 2.58495,-0.48247 3.24366,-1.14118 z"
     id="path20" />
  <path
     style="fill:#7fffd4;fill-opacity:1;stroke-width:5.9883;stroke-opacity:0.362031"
     d="m 553.91813,519.06936 c -8.2901,-1.91207 -19.64703,-6.57043 -25.21754,-10.34368 -0.95575,-0.64739 0.59141,-4.73689 6.33916,-16.75596 8.52721,-17.83112 18.87547,-40.71805 23.9758,-53.02652 1.86508,-4.50094 5.9213,-13.03427 9.01382,-18.96296 18.92844,-36.28782 28.25536,-53.63984 32.61729,-60.68199 7.54351,-12.17869 20.45171,-28.90951 30.26849,-39.23216 l 8.83534,-9.29064 7.9844,4.69325 c 11.05405,6.49758 21.89042,17.62358 26.64945,27.36171 10.53268,21.55244 9.76507,43.29353 -2.83024,80.16067 -8.33318,24.39167 -23.88172,52.47386 -36.70993,66.30178 -11.78963,12.7084 -27.55042,23.15609 -42.00206,27.84282 -9.89106,3.2077 -29.23398,4.16863 -38.92398,1.93368 z m 56.59638,-127.68897 c 24.04187,-10.29792 59.84653,-27.25686 60.83522,-28.81472 1.20205,-1.89406 1.00605,-4.15236 -0.54447,-6.27281 -1.31863,-1.80333 -2.35786,-1.42822 -22.70565,8.19568 -11.72808,5.54703 -28.43299,13.34348 -37.12202,17.32545 -15.08066,6.91109 -15.95332,7.47022 -19.21248,12.30979 -1.87783,2.78842 -3.41423,5.40157 -3.41423,5.80701 0,0.91843 0.57748,0.69565 22.16363,-8.5504 z"
     id="path21" />
  <path
     style="fill:#7fffd4;fill-opacity:1;stroke-width:5.9883;stroke-opacity:0.362031"
     d="m 395.73587,663.45419 c -5.67112,-31.99286 -0.96516,-57.85034 14.49713,-79.65636 5.68465,-8.0169 19.15729,-20.65843 28.9761,-27.18861 8.0501,-5.35387 32.28557,-18.16088 34.36691,-18.16088 0.62792,0 -2.7702,7.52281 -7.55136,16.71735 -4.78117,9.19454 -14.75589,28.39454 -22.16605,42.66667 -14.28011,27.5038 -25.35072,45.40971 -38.412,62.12865 -4.39557,5.62651 -8.10999,10.23002 -8.25425,10.23002 -0.14426,0 -0.79968,-3.03158 -1.45648,-6.73684 z"
     id="path22" />
  <path
     style="fill:#7fffd4;fill-opacity:1;stroke-width:5.9883;stroke-opacity:0.362031"
     d="m 744.33186,526.22222 c 1.02538,-53.18206 3.74305,-68.11558 15.08939,-82.91592 l 3.69396,-4.81846 -2.09741,-3.55484 c -4.12469,-6.99083 -6.99051,-15.51357 -6.99051,-20.78928 0,-4.98858 0.11938,-5.21633 3.04061,-5.80058 2.21952,-0.4439 3.32297,-1.41809 4.08622,-3.60755 0.94689,-2.71625 1.3996,-2.96755 4.79489,-2.66172 2.0621,0.18574 4.33354,0.69881 5.04764,1.14015 0.8076,0.49912 1.78083,0.14263 2.57477,-0.94314 1.15316,-1.57704 1.48619,-1.33435 3.44934,2.51376 3.00283,5.88603 2.40027,13.3261 -1.75209,21.63379 -5.05849,10.12061 -5.05103,11.01982 0.15587,18.78361 5.71612,8.52305 8.26453,15.24718 10.56409,27.87398 3.23545,17.76566 4.09161,32.46744 3.35654,57.63743 l -0.69224,23.7037 h -2.34206 c -2.33372,0 -2.34206,-0.0449 -2.34206,-12.60177 0,-6.93099 -0.6719,-20.06783 -1.4931,-29.19299 -0.82121,-9.12516 -1.96088,-21.75611 -2.53259,-28.06878 -0.57172,-6.31267 -1.28287,-12.71267 -1.58035,-14.22223 -1.29307,-6.56172 -1.88824,-1.41191 -2.01425,17.4286 -0.082,12.26651 -0.52115,20.30017 -1.12049,20.49994 -0.54207,0.18069 -1.23251,-0.61576 -1.53432,-1.7699 -0.30182,-1.15413 -1.14497,-1.9827 -1.87367,-1.84125 -1.91161,0.37107 -5.81614,-1.10418 -5.81614,-2.19751 0,-0.51193 -0.44912,-0.93079 -0.99805,-0.93079 -0.54893,0 -0.99805,1.30532 -0.99805,2.90071 0,2.39171 -0.344,2.81076 -1.96034,2.38808 -3.79779,-0.99314 -4.60823,1.52115 -5.85528,18.1654 -0.65804,8.78284 -1.46711,19.22495 -1.79793,23.20468 l -0.60148,7.23586 h -5.01188 -5.01188 z"
     id="path23" />
  <path
     style="fill:#7fffd4;fill-opacity:1;stroke-width:2.11719;stroke-opacity:0.362031"
     d="m 766.14297,395.82296 c -0.25863,-4.83569 -0.49504,-27.99549 -0.55557,-54.42684 l -0.0473,-20.64256 0.78996,-0.65456 c 0.43448,-0.36001 1.52271,-1.02588 2.41829,-1.4797 l 1.62833,-0.82514 0.24427,7.83126 c 0.69763,22.36589 1.16812,60.95358 0.73794,60.5234 -0.0983,-0.0983 -0.22678,-3.18142 -0.28559,-6.85144 -0.0588,-3.67003 -0.19625,-10.32493 -0.30543,-14.78866 -0.10919,-4.46373 -0.21451,-12.43535 -0.23406,-17.71472 -0.0378,-10.1963 -0.31094,-15.27808 -0.82131,-15.27808 -0.17942,0 -0.2584,12.19043 -0.18576,28.67022 0.18467,41.89037 0.0544,37.44621 1.11392,38.01323 0.4933,0.264 0.8969,0.61196 0.8969,0.77324 0,0.44564 -1.1278,0.32774 -2.11719,-0.22135 -0.77971,-0.43272 -1.00946,-0.41107 -1.97841,0.18647 l -1.09626,0.67605 z m 3.8926,-71.78997 c -0.0671,-1.41553 -0.12254,-0.35066 -0.12309,2.3664 -5.5e-4,2.71705 0.0544,3.87522 0.12209,2.5737 0.0677,-1.30152 0.0681,-3.52456 10e-4,-4.9401 z"
     id="path24" />
  <path
     style="fill:#7fffd4;fill-opacity:1;stroke-width:2.11719;stroke-opacity:0.362031"
     d="m 502.65506,897.27199 c -38.48148,-1.05207 -75.63021,-7.49283 -113.97286,-19.76033 -11.83314,-3.78595 -26.42904,-10.02575 -44.11031,-18.85738 -6.11337,-3.05358 -13.73523,-7.01413 -16.93748,-8.80124 C 265.93098,815.41758 217.62253,769.36919 180.13807,709.25705 171.4161,695.27004 159.35913,672.71757 154.01033,660.38536 135.5051,617.71963 124.95763,573.75335 122.2407,527.95623 c -0.55499,-9.35499 -0.23628,-39.7655 0.52403,-50.00167 1.74276,-23.46321 4.77514,-44.09191 9.44041,-64.22128 13.73129,-59.24686 40.18866,-112.01913 80.22798,-160.02392 12.74222,-15.27717 28.92966,-32.25743 38.97233,-40.88108 8.11153,-6.96537 21.91323,-17.66761 31.76807,-24.63387 81.77516,-57.80587 171.54989,-81.01186 270.64685,-69.95988 19.68728,2.19566 44.2575,6.59821 58.22259,10.43247 47.11076,12.93475 90.27911,32.85889 127.03111,58.63058 48.2901,33.86259 88.73783,79.85663 119.03207,135.35416 8.09771,14.83462 16.68656,35.17645 23.528,55.7238 11.04917,33.18481 17.21826,65.15047 19.83069,102.7548 0.68399,9.84562 0.5691,40.72547 -0.18907,50.81245 -3.15965,42.03798 -11.6177,79.10943 -26.60776,116.62162 -10.58194,26.48097 -22.99552,49.88049 -39.7793,74.98364 -47.32265,70.77948 -111.19287,120.98687 -192.67585,151.45948 -16.08461,6.01524 -28.06336,9.52595 -44.98814,13.18501 -31.15854,6.73632 -64.20939,9.90949 -94.56965,9.07945 z m 33.69853,-14.21171 c 49.81807,-3.74929 90.19209,-14.12512 133.20624,-34.23309 24.04656,-11.24112 54.43336,-29.97535 73.70546,-45.44132 15.79551,-12.67594 35.26299,-31.54416 50.15322,-48.60934 42.07973,-48.22616 71.03728,-105.66695 85.54353,-169.68594 3.47663,-15.34289 5.87611,-28.95293 6.69503,-37.97464 8.2053,-90.39142 -9.67006,-170.24423 -53.87114,-240.65339 -15.98697,-25.46611 -34.88306,-48.82653 -58.7196,-72.59254 -10.33917,-10.30855 -14.07681,-13.61574 -24.49845,-21.67699 -60.30526,-46.64675 -127.08983,-73.75201 -200.21691,-81.26026 -25.74271,-2.64311 -57.39947,-2.95599 -75.68937,-0.74807 -36.71805,4.43253 -69.85779,12.89548 -104.09494,26.5829 -12.58134,5.0298 -27.44818,11.94398 -36.16858,16.82106 -55.91592,31.27225 -100.56294,72.17174 -134.07071,122.81727 -9.28481,14.03358 -15.19263,24.21137 -22.94033,39.52079 -9.0432,17.86933 -15.81568,33.80148 -19.8745,46.75451 -10.74441,34.28885 -16.55448,64.78134 -19.19562,100.74273 -0.59662,8.12343 -0.59825,37.28151 -0.003,45.51948 2.44293,33.78361 7.91369,61.32692 18.3979,92.62685 10.90489,32.55585 26.59433,64.34229 47.14472,95.5141 16.70646,25.34112 40.8856,52.72924 65.96694,74.72182 52.05727,45.64647 114.00674,74.75389 186.66516,87.70609 10.58183,1.8863 21.70916,3.02941 37.75647,3.87864 7.23986,0.38314 37.6528,0.15512 44.10803,-0.33066 z"
     id="path32" />
  <path
     style="fill:#7fffd4;fill-opacity:1;stroke-width:2.11719;stroke-opacity:0.362031"
     d="m 539.37431,795.87744 c -7.18895,-1.00281 -14.02129,-4.58762 -20.39322,-10.69997 -2.51117,-2.40887 -3.14153,-3.27134 -4.64894,-6.36077 -2.28911,-4.69152 -4.06267,-9.89349 -5.04089,-14.78533 -1.12122,-5.60691 -1.11339,-15.15747 0.0174,-21.25222 4.25924,-22.95593 12.44355,-43.27633 25.14137,-62.42224 l 4.1894,-6.31684 -2.0251,-2.26479 c -6.44047,-7.20277 -10.46696,-13.53727 -13.29595,-20.91726 -0.70675,-1.84371 -1.77023,-4.49686 -2.36327,-5.89588 -1.89584,-4.47235 -0.87401,-3.56786 1.50923,1.33591 2.72185,5.60051 5.48956,10.15694 8.9772,14.77897 2.72996,3.61791 8.23996,9.68328 8.53166,9.39159 0.51736,-0.51736 -4.08775,-9.9603 -7.15169,-14.66482 -2.14238,-3.28949 -3.61951,-6.79982 -4.94811,-11.75895 -0.87325,-3.25945 -1.07784,-4.83134 -0.62884,-4.83134 0.13305,0 0.59436,0.33111 1.02512,0.7358 0.74871,0.70336 0.82357,0.70935 1.69885,0.13585 1.10026,-0.72092 1.13792,-0.54755 0.21122,0.97236 -0.38742,0.63544 -0.705,1.51077 -0.70572,1.94518 -0.002,1.22528 3.37064,9.58528 5.81127,14.4046 2.74442,5.4192 6.23598,11.11125 6.74804,11.00089 0.21275,-0.0459 2.11717,-1.98885 4.23205,-4.31775 8.2723,-9.10945 19.30566,-19.68603 29.41652,-28.19868 9.85476,-8.29703 22.62041,-17.79181 29.001,-21.57023 15.49035,-9.17299 32.78739,-15.11794 51.29161,-17.62881 5.8986,-0.80039 16.74525,-1.08125 21.34829,-0.55279 23.25684,2.67007 38.42015,15.11628 46.02844,37.78062 l 1.59914,4.76367 0.005,7.51227 c 0.005,8.38719 -0.33455,12.34085 -1.60581,18.69374 -4.02794,20.12894 -15.17613,35.87455 -33.61444,47.47674 -11.03564,6.94411 -23.52289,11.40167 -38.51939,13.75022 -6.52798,1.02232 -21.39913,1.10105 -27.52784,0.14572 -20.41571,-3.18233 -36.03363,-10.17751 -57.34043,-25.68246 -4.17961,-3.0415 -8.96164,-7.64929 -19.65101,-18.93502 -2.2518,-2.37742 -4.16955,-4.32258 -4.26168,-4.32258 -0.0921,0 -1.59368,2.10395 -3.33678,4.67545 -10.87377,16.04147 -17.84232,32.34624 -21.4174,50.11167 -1.66251,8.26145 -2.27799,13.44313 -2.73686,23.04164 -0.36778,7.69309 -0.34967,8.32097 0.33116,11.48264 2.78243,12.92105 9.48011,20.80764 20.09253,23.65916 2.01349,0.54101 4.22129,0.78553 8.23619,0.91218 l 5.48529,0.17303 2.73307,-1.13777 c 5.00747,-2.08462 9.1968,-5.30341 11.25379,-8.64663 2.95589,-4.80421 2.86357,-11.6796 -0.2514,-18.72311 -0.49326,-1.11536 -0.81638,-2.1084 -0.71802,-2.20676 0.3514,-0.3514 4.03857,0.6945 4.93544,1.39998 1.24362,0.97823 4.28324,7.37514 4.80376,10.10955 0.65753,3.45419 0.23872,6.72862 -1.2658,9.89672 -1.01009,2.12696 -1.8986,3.29134 -4.33912,5.68636 -3.39622,3.33291 -5.29476,4.49721 -9.83667,6.03247 -5.83391,1.97199 -12.23474,2.75682 -17.02923,2.08802 z m 101.88207,-73.75932 c 8.26418,-0.89561 18.97371,-3.68773 27.07129,-7.05785 25.30867,-10.53319 40.39426,-27.28175 46.83093,-51.9934 1.08117,-4.15082 1.11154,-4.47522 1.09325,-11.67955 -0.0198,-7.79755 -0.51405,-12.47649 -1.88525,-17.847 -2.73007,-10.69258 -8.29315,-18.89502 -16.39283,-24.17025 -8.35438,-5.44112 -18.49621,-7.96108 -32.29545,-8.02452 -7.0494,-0.0324 -7.39556,3.5e-4 -13.58527,1.28531 -16.53434,3.43247 -26.84183,7.09574 -40.40295,14.35913 -25.25117,13.52463 -45.54099,30.79138 -63.77022,54.26883 -1.60661,2.06915 -2.92112,3.95706 -2.92112,4.19534 0,0.77471 5.32884,6.8622 10.75361,12.28458 19.64376,19.63509 44.12253,32.07036 67.93511,34.51118 2.89165,0.2964 14.41542,0.20994 17.5689,-0.1318 z"
     id="path33" />
  <path
     style="fill:#7fffd4;fill-opacity:1;stroke-width:2.11719;stroke-opacity:0.362031"
     d=""
     id="path34" />
  <path
     style="fill:#7fffd4;fill-opacity:1;stroke-width:2.11719;stroke-opacity:0.362031"
     d="m 763.77457,552.23248 c 0,-1.45455 0.12738,-1.94076 0.50847,-1.94076 0.27966,0 0.60661,0.15879 0.72655,0.35287 0.45966,0.74375 2.61237,0.3734 3.75287,-0.64564 l 1.11753,-0.99851 -1.35254,-1.4971 c -1.55273,-1.71869 -3.35547,-2.7385 -5.42623,-3.06963 -1.38857,-0.22204 -1.44384,-0.28092 -1.44384,-1.53842 0,-0.71915 -0.088,-1.39555 -0.19556,-1.50311 -0.46388,-0.46388 -0.5869,-20.07117 -0.1556,-24.79899 0.15934,-1.74667 0.30354,-3.37289 0.32044,-3.6138 0.0325,-0.46391 3.55196,-0.49046 3.55683,-0.0268 10e-4,0.13247 0.33055,0.34497 0.73145,0.47221 0.4009,0.12725 1.2506,0.6894 1.88823,1.24924 l 1.15931,1.0179 0.81976,-0.8726 c 1.03537,-1.1021 2.25348,-1.11226 3.33788,-0.0279 0.91998,0.91998 1.23455,0.84806 1.2511,-0.28604 0.01,-0.65377 0.0494,-0.66889 0.35975,-0.13665 0.19196,0.32917 0.39008,3.42555 0.44026,6.88086 0.11474,7.90111 0.5836,19.90733 0.79048,20.24206 0.30934,0.50052 0.48734,9.70944 0.21103,10.91723 -0.26802,1.17152 -0.29673,1.11709 -0.55825,-1.05859 -0.15164,-1.26149 -0.36995,-2.45081 -0.48513,-2.64293 -0.32451,-0.54124 -0.6948,1.19335 -0.73369,3.43687 l -0.0352,2.02897 h -5.29296 -5.29296 z"
     id="path35" />
  <path
     style="fill:#7fffd4;fill-opacity:1;stroke-width:2.99415;stroke-opacity:0.362031"
     d="m 760.52138,548.05458 c -0.42885,-8.801 -0.60672,-40.10081 -0.23007,-40.48403 0.15165,-0.15429 1.10603,-0.14579 2.12086,0.0189 1.52404,0.24731 1.84514,0.50517 1.84514,1.48169 0,0.65025 0.20054,1.18227 0.44564,1.18227 0.84402,0 1.03215,-1.53789 0.49468,-4.04401 -0.29632,-1.3817 -0.41638,-2.63457 -0.2668,-2.78416 0.14959,-0.14958 0.87548,0.20276 1.61311,0.78298 0.73763,0.58021 1.66386,1.05494 2.05829,1.05494 0.57983,0 0.6502,0.53588 0.36748,2.79866 -0.3471,2.7781 -0.34095,2.79598 0.83739,2.43405 2.44351,-0.75053 2.99005,-1.79574 1.69009,-3.23218 -0.62814,-0.69408 -0.63991,-0.96576 -0.0753,-1.73787 0.61326,-0.83868 0.76703,-0.69871 1.83963,1.6746 0.77755,1.72045 1.43099,2.54034 1.94668,2.44251 0.63779,-0.12099 0.87404,-1.61505 1.32453,-8.37657 l 0.54829,-8.22932 0.0104,14.72124 c 0.006,8.09669 -0.13108,18.98792 -0.30404,24.20273 l -0.31447,9.48149 -0.3905,-6.73685 c -0.21478,-3.70526 -0.5686,-10.55438 -0.78628,-15.22027 -0.27898,-5.97972 -0.51357,-7.99671 -0.7949,-6.83424 -0.30317,1.25274 -0.59273,1.56902 -1.20456,1.3157 -1.90744,-0.78975 -2.51652,-0.75478 -3.47055,0.19925 -0.91483,0.91482 -1.0732,0.93555 -1.66797,0.21835 -0.88587,-1.06822 -3.54228,-2.13493 -5.31659,-2.13493 -1.28536,0 -1.48252,0.20999 -1.75713,1.87135 -0.40707,2.46275 -0.40944,23.57773 -0.003,27.46552 l 0.31721,3.03493 1.98635,0.33559 c 1.25754,0.21246 2.71612,0.99489 3.97531,2.1325 l 1.98896,1.7969 -1.10414,0.89409 c -1.35662,1.09851 -2.6602,1.14382 -3.50831,0.12192 -0.89661,-1.08036 -1.46006,-0.067 -1.46983,2.6435 l -0.008,2.12086 h 5.71271 5.71271 l 0.18329,-2.61989 0.18328,-2.61988 0.0923,2.8694 0.0923,2.86939 h -7.18399 -7.18399 z"
     id="path36" />
  <path
     style="fill:#7fffd4;fill-opacity:1;stroke-width:2.99415;stroke-opacity:0.362031"
     d="m 754.77583,407.18865 c 0,-2.48593 3.77389,-7.59298 6.4212,-8.68952 l 1.42017,-0.58826 0.33274,-12.81898 c 0.375,-14.4469 1.23559,-37.25405 1.7453,-46.25368 0.21033,-3.71346 0.45195,6.76795 0.63605,27.59121 0.16328,18.46873 0.43618,33.71882 0.60644,33.88908 0.17026,0.17026 0.70392,-0.044 1.18592,-0.47603 0.64631,-0.57937 1.49857,-0.71436 3.24672,-0.51424 2.54634,0.2915 3.1612,-0.33597 1.20336,-1.22802 -1.14507,-0.52173 -1.17319,-0.70857 -1.49567,-9.93585 -0.18076,-5.17227 -0.29301,-17.37606 -0.24945,-27.11953 l 0.0792,-17.7154 0.37247,17.7154 c 0.20485,9.74347 0.52799,21.76863 0.71808,26.72258 l 0.34563,9.00717 1.7202,1.1787 c 0.94611,0.64829 1.499,1.31542 1.22863,1.48252 -0.27037,0.1671 -0.72463,0.91679 -1.00947,1.66597 -0.51692,1.3596 -1.70541,1.80772 -2.28919,0.86314 -0.16963,-0.27446 -1.34588,-0.49902 -2.6139,-0.49902 -1.26802,0 -3.04999,-0.26922 -3.95994,-0.59826 -1.46236,-0.5288 -1.74217,-0.48534 -2.41003,0.37427 -0.41558,0.53489 -1.0231,1.92047 -1.35006,3.07908 -0.4945,1.75234 -0.91504,2.23483 -2.50099,2.8694 -2.41534,0.96642 -3.3834,0.96593 -3.3834,-0.002 z"
     id="path37" />
  <path
     style="fill:#7fffd4;fill-opacity:1;stroke-width:2.99415;stroke-opacity:0.362031"
     d=""
     id="path38" />
  <path
     style="fill:#7fffd4;fill-opacity:1;stroke-width:1.05859;stroke-opacity:0.362031"
     d="m 772.96164,433.12821 c -0.15249,-0.15249 -0.27725,-0.35186 -0.27725,-0.44305 0,-0.0912 0.58491,-1.13749 1.2998,-2.32512 2.12971,-3.53803 3.27309,-6.05335 4.49985,-9.89924 1.05385,-3.30383 1.31631,-5.09323 1.21361,-8.27429 -0.0719,-2.22882 -0.16714,-2.95866 -0.55767,-4.27549 -0.82457,-2.78035 -1.80037,-4.58861 -3.80841,-7.05729 -0.55251,-0.67926 -0.96904,-1.33886 -0.92561,-1.46577 0.0434,-0.12691 -0.0606,-0.38494 -0.23114,-0.5734 -0.60966,-0.67367 -0.0107,-0.32586 1.06465,0.61829 4.38059,3.84595 6.55738,9.37566 5.93817,15.08479 -0.42732,3.93992 -1.89267,8.29612 -4.44891,13.22578 -1.31644,2.53873 -3.17434,5.65962 -3.37012,5.66112 -0.0658,5e-4 -0.24448,-0.12384 -0.39697,-0.27633 z"
     id="path39" />
  <path
     style="fill:#7fffd4;fill-opacity:1;stroke-width:1.05859;stroke-opacity:0.362031"
     d="m 769.21307,509.15947 c 0.0615,-0.6663 0.16395,-1.89425 0.22768,-2.72878 l 0.11585,-1.51733 -0.74824,-0.10036 c -1.2039,-0.16148 -2.31746,-0.83408 -2.96072,-1.7883 -0.31537,-0.46783 -0.5734,-0.96734 -0.5734,-1.11001 0,-0.43815 0.43068,-0.1467 0.61777,0.41805 0.0972,0.29334 0.27696,0.65417 0.39953,0.80186 0.3538,0.4263 2.21653,1.19086 3.60839,1.48107 0.70225,0.14643 1.31121,0.30062 1.35324,0.34264 0.042,0.042 -0.0452,0.21584 -0.19389,0.38626 -0.7428,0.85144 -0.73986,1.07513 0.025,1.90494 0.7455,0.80877 0.84165,1.108 0.53823,1.67495 -0.18988,0.3548 -1.3831,1.10552 -2.09708,1.31939 l -0.42421,0.12708 z"
     id="path40" />
  <path
     style="fill:#7fffd4;fill-opacity:1;stroke-width:1.05859;stroke-opacity:0.362031"
     d="m 758.88018,515.79925 c -0.40726,-2.4695 -0.66322,-4.65805 -0.66322,-5.67068 0,-0.98655 0.48715,-2.19414 1.12206,-2.78144 l 0.45887,-0.42446 -0.0823,1.80462 c -0.0452,0.99255 -0.12698,1.87701 -0.18165,1.96547 -0.0547,0.0885 -0.0967,0.93619 -0.0935,1.88383 0.003,0.94764 -0.0527,2.47723 -0.12445,3.39909 l -0.13037,1.67611 z"
     id="path41" />
  <path
     style="fill:#7fffd4;fill-opacity:1;stroke-width:1.05859;stroke-opacity:0.362031"
     d="m 781.52532,533.48657 c 0.0113,-12.90856 0.0824,-21.68875 0.17182,-21.23324 1.0222,5.2066 1.74675,19.67003 1.74867,34.90673 l 9.4e-4,7.45425 3.04345,-4e-5 3.04345,-3e-5 0.008,-9.74784 c 0.007,-8.69014 0.19633,-15.27936 0.60126,-20.95127 0.0729,-1.02123 0.14399,5.64904 0.15842,14.8644 l 0.0262,16.71694 h -4.4108 -4.41081 z"
     id="path42" />
</svg>
