<?xml version="1.0" encoding="UTF-8" standalone="no"?>
<svg
   version="1.0"
   width="597px"
   height="597px"
   viewBox="0 0 597 597"
   preserveAspectRatio="xMidYMid meet"
   id="svg4"
   sodipodi:docname="capello.svg"
   inkscape:version="1.3-alpha (76e0050ef, 2023-04-25)"
   xmlns:inkscape="http://www.inkscape.org/namespaces/inkscape"
   xmlns:sodipodi="http://sodipodi.sourceforge.net/DTD/sodipodi-0.dtd"
   xmlns="http://www.w3.org/2000/svg"
   xmlns:svg="http://www.w3.org/2000/svg">
  <defs
     id="defs4" />
  <sodipodi:namedview
     id="namedview4"
     pagecolor="#ffffff"
     bordercolor="#000000"
     borderopacity="0.25"
     inkscape:showpageshadow="2"
     inkscape:pageopacity="0.0"
     inkscape:pagecheckerboard="0"
     inkscape:deskcolor="#d1d1d1"
     inkscape:zoom="1.400335"
     inkscape:cx="298.85706"
     inkscape:cy="298.85706"
     inkscape:window-width="1920"
     inkscape:window-height="1009"
     inkscape:window-x="-8"
     inkscape:window-y="-8"
     inkscape:window-maximized="1"
     inkscape:current-layer="svg4" />
  <g
     fill="#009360"
     fill-rule="evenodd"
     id="g4">
    <path
       d="M 92,460.85 C 92,444 92.2,429.8 92.5,428 c 0.75,-5.05 3.5,-10.15 7.55,-14.1 3.15,-3.1 3.4,-3.45 2.95,-4.65 -0.3,-0.75 -0.5,-3.05 -0.5,-5.2 0,-4.55 1.25,-7.7 4.35,-10.95 l 2,-2.1 0.05,-8.9 c 0.05,-4.85 0.2,-11.9 0.35,-15.6 0.15,-3.75 0.55,-25.45 0.95,-48.25 0.4,-22.85 0.85,-45.55 1,-50.5 0.15,-4.95 0.4,-15.15 0.6,-22.65 0.2,-7.5 0.45,-13.75 0.6,-13.85 0.3,-0.15 18.95,5.95 19.35,6.3 0.2,0.2 -0.6,56.75 -1,71.45 -0.15,5.35 -0.4,19.4 -0.5,31.25 -0.15,11.8 -0.4,28.35 -0.6,36.75 l -0.3,15.3 2.1,3.05 c 2.95,4.35 3.65,9.65 1.9,14.25 -0.45,1.3 -0.3,1.6 2.5,4.55 3.35,3.45 6.2,8.6 7.05,12.7 0.4,1.8 0.6,12.45 0.6,33.15 v 30.5 H 117.75 92 v -29.65"
       id="path2"
       style="display:inline" />
    <path
       d="M 307.6,442.25 C 305.2,441.05 292.3,435 279,428.8 265.65,422.65 249.35,415.1 242.85,412.05 236.3,409 229.85,406 228.6,405.4 c -7.75,-3.45 -31.1,-14.35 -43.1,-20.1 -4.95,-2.3 -17.45,-8.15 -39.75,-18.4 -7.15,-3.3 -13.15,-6.15 -13.35,-6.35 -0.3,-0.35 0.7,-6.6 1.9,-11.55 3.35,-13.9 9.85,-29.4 18.25,-43.25 3.3,-5.5 4.9,-7.8 10.65,-15.25 7.5,-9.65 23.65,-25.65 25.9,-25.65 1.05,0 6.6,1.95 16.4,5.65 2.05,0.8 9.95,3.65 17.55,6.45 7.55,2.75 14.65,5.3 15.75,5.75 1.05,0.4 6,2.2 10.95,3.95 4.95,1.8 13.05,4.75 18,6.6 4.95,1.85 12.05,4.4 15.8,5.7 3.75,1.35 7.05,2.55 7.3,2.7 0.45,0.3 5.55,2.2 11.7,4.4 l 2.8,1 6.7,-2.75 c 3.65,-1.5 10.3,-4.2 14.7,-6.05 16.7,-7 30.05,-12.55 44,-18.3 3.85,-1.6 11.05,-4.55 16,-6.6 4.95,-2.1 14.15,-5.9 20.5,-8.5 6.3,-2.65 12.8,-5.35 14.4,-6.05 1.65,-0.75 3.45,-1.3 4.05,-1.3 1.4,0 7.25,4.95 12.2,10.25 15.75,17.05 28.2,41.55 34.55,68 2,8.25 3.6,16.7 3.25,17.25 -0.35,0.55 -3.4,2.35 -18.2,10.7 -6.2,3.5 -13.3,7.55 -15.75,9 -2.5,1.45 -8.25,4.7 -12.75,7.25 -4.55,2.55 -10.85,6.2 -14,8.05 -3.2,1.85 -8.25,4.75 -11.25,6.4 -3.05,1.65 -7.65,4.2 -10.25,5.7 -2.65,1.5 -8.5,4.85 -13,7.4 -4.55,2.55 -12.9,7.25 -18.5,10.5 -5.65,3.2 -14.2,8.05 -19,10.75 -4.85,2.7 -13,7.35 -18.15,10.35 -7.05,4.05 -9.8,5.4 -11.1,5.4 -1.1,0 -3.45,-0.85 -6.15,-2.25"
       id="path3"
       style="display:inline" />
    <path
       d="m 290.85,287.5 c -6.95,-2.45 -21.3,-7.4 -31.85,-11 -10.6,-3.65 -27.5,-9.4 -37.5,-12.85 -10.05,-3.45 -26.7,-9.15 -37,-12.65 -51.55,-17.6 -46.85,-15.9 -46.25,-16.45 0.25,-0.25 7.45,-2.75 16,-5.55 8.5,-2.8 42.6,-14.05 75.8,-25.05 l 60.3,-20 6.7,0.3 c 7.8,0.4 13.45,-0.25 18.5,-2 6.2,-2.15 9.4,-5.1 9.4,-8.6 0.05,-3.2 -3.35,-5.8 -10.6,-8.25 -8.2,-2.75 -20.45,-2.55 -28.05,0.4 -6.3,2.45 -8.2,4.15 -9.05,8.05 -0.3,1.35 -0.65,1.7 -2.45,2.15 -3.85,1 -16.8,5 -29.05,9 -4.15,1.35 -15.05,4.7 -24.25,7.5 -9.25,2.8 -17,5.2 -17.25,5.4 -0.3,0.15 -1.85,0.7 -3.5,1.15 -1.65,0.4 -6.35,1.85 -10.4,3.1 -4.05,1.3 -10.6,3.3 -14.5,4.55 -3.9,1.2 -12.3,3.8 -18.6,5.75 -6.35,2 -13.75,4.25 -16.5,5.1 -2.75,0.85 -9.05,2.8 -14,4.4 -14.55,4.65 -13.25,4.5 -19.35,2.35 -2.85,-1 -16.75,-5.75 -30.9,-10.6 -14.2,-4.9 -29.6,-10.15 -34.25,-11.75 -4.7,-1.6 -8.55,-3.1 -8.65,-3.35 -0.05,-0.2 7.1,-2.65 16,-5.35 14.4,-4.4 24,-7.4 42.15,-13 9.65,-3.05 19.95,-6.2 44,-13.6 12.9,-3.95 26.95,-8.3 31.25,-9.65 4.25,-1.35 10.1,-3.15 13,-4 2.85,-0.9 7.95,-2.45 11.25,-3.5 3.3,-1.05 11.6,-3.65 18.5,-5.75 15.3,-4.7 16.6,-5.05 18.5,-5.75 0.8,-0.3 4.15,-1.35 7.4,-2.3 3.3,-0.95 10.7,-3.2 16.5,-5 5.8,-1.85 13.15,-4.1 16.35,-5.05 3.15,-1 7.4,-2.3 9.5,-2.95 2.05,-0.65 7.35,-2.3 11.8,-3.7 l 8.1,-2.5 9.9,2.45 c 5.45,1.35 17.8,4.4 27.45,6.8 9.6,2.35 24.7,6.1 33.5,8.3 8.8,2.2 16.9,4.15 18,4.4 1.1,0.25 11.55,2.85 23.25,5.75 11.65,2.9 29.8,7.45 40.25,10 10.45,2.6 31.7,7.85 47.25,11.7 15.5,3.85 39.3,9.75 52.85,13.1 13.55,3.35 24.65,6.25 24.65,6.4 0,0.2 -0.85,0.65 -1.9,1.05 -2.9,1 -20.4,7.85 -24.6,9.6 -6.6,2.7 -58,23.15 -70.75,28.15 -3.05,1.15 -7,2.7 -8.75,3.45 -10.05,4.05 -45.35,18 -48.75,19.25 -2.2,0.8 -5.35,2.05 -7,2.75 -2.45,1.05 -27.65,11 -57.75,22.85 -8.45,3.3 -12.7,5 -15,5.95 C 330.35,282.8 306.2,292 305,292 c -0.85,0 -7.2,-2.05 -14.15,-4.5"
       id="path4"
       style="display:inline" />
  </g>
</svg>
